# AST/ASF file generated using VICON BodyLanguage
# -----------------------------------------------
:version 1.10
:name VICON
:units
  mass 1.0
  length 0.45
  angle deg
:documentation
   .ast/.asf automatically generated from VICON data using
   VICON BodyBuilder and BodyLanguage model FoxedUp or BRILLIANT.MOD
:root
   order TX TY TZ RX RY RZ
   axis XYZ
   position 0 0 0  
   orientation 0 0 0 
:bonedata
  begin
     id 1 
     name lhipjoint
     direction 0.630305 -0.712092 0.309259 
     length 2.29033 
     axis 0 0 0  XYZ
  end
  begin
     id 2 
     name lfemur
     direction 0.34202 -0.939693 0  
     length 6.43538  
     axis 0 0 20  XYZ
    dof rx ry rz
    limits (-160.0 20.0)
           (-70.0 70.0)
           (-60.0 70.0)
  end
  begin
     id 3 
     name ltibia
     direction 0.34202 -0.939693 0   
     length 7.43097   
     axis 0 0 20   XYZ
    dof rx
    limits (-10.0 170.0)
  end
  begin
     id 4 
     name lfoot
     direction 0.0334653 -0.0919451 0.995202   
     length 1.78438   
     axis -90 7.62852e-016 20   XYZ
    dof rx rz
    limits (-45.0 90.0)
           (-70.0 20.0)
  end
  begin
     id 5 
     name ltoes
     direction 1.53535e-011 -4.21933e-011 1   
     length 0.90832   
     axis -90 7.62852e-016 20   XYZ
    dof rx
    limits (-90.0 20.0)
  end
  begin
     id 6 
     name rhipjoint
     direction -0.682059 -0.67077 0.291312   
     length 2.43143  
     axis 0 0 0  XYZ 
  end
  begin
     id 7 
     name rfemur
     direction -0.34202 -0.939693 0   
     length 6.63488   
     axis 0 0 -20   XYZ
    dof rx ry rz
    limits (-160.0 20.0)
           (-70.0 70.0)
           (-70.0 60.0)
  end
  begin
     id 8 
     name rtibia
     direction -0.34202 -0.939693 0   
     length 6.86532   
     axis 0 0 -20   XYZ
    dof rx
    limits (-10.0 170.0)
 end
 begin
     id 9 
     name rfoot
     direction -0.105199 -0.289033 0.951521   
     length 1.77126  
     axis -90 -7.62852e-016 -20   XYZ
    dof rx rz
    limits (-45.0 90.0)
           (-20.0 70.0)
  end
  begin
     id 10 
     name rtoes
     direction -1.53551e-011 -4.21978e-011 1   
     length 0.889273   
     axis -90 -7.62852e-016 -20   XYZ
    dof rx
    limits (-90.0 20.0)
  end
  begin
     id 11 
     name lowerback
     direction -0.0514305 0.998089 0.034245   
     length 2.02077   
     axis 0 0 0   XYZ
    dof rx ry rz
    limits (-20.0 45.0)
           (-30.0 30.0)
           (-30.0 30.0)
  end
  begin
     id 12 
     name upperback
     direction 0.0203189 0.999449 -0.0262315   
     length 2.01413   
     axis 0 0 0   XYZ
    dof rx ry rz
    limits (-20.0 45.0)
           (-30.0 30.0)
           (-30.0 30.0)
  end
  begin
     id 13 
     name thorax
     direction 0.0452736 0.998142 -0.0407729   
     length 2.02986   
     axis 0 0 0   XYZ
    dof rx ry rz
    limits (-20.0 45.0)
           (-30.0 30.0)
           (-30.0 30.0)
  end
  begin
     id 14 
     name lowerneck
     direction -0.0180464 0.999645 -0.0195774   
     length 1.59034   
     axis 0 0 0   XYZ
    dof rx ry rz
    limits (-20.0 45.0)
           (-30.0 30.0)
           (-30.0 30.0)
  end
  begin
     id 15 
     name upperneck
     direction 0.0732272 0.979935 -0.18538   
     length 1.57486   
     axis 0 0 0   XYZ
    dof rx ry rz
    limits (-20.0 45.0)
           (-30.0 30.0)
           (-30.0 30.0)
  end
  begin
     id 16
     name head
     direction 0.0252963 0.997909 -0.059472  
     length 1.60334  
     axis 0 0 0   XYZ
    dof rx ry rz
    limits (-20.0 45.0)
           (-30.0 30.0)
           (-30.0 30.0)
  end
  begin
     id 17 
     name lclavicle
     direction 0.943819 0.330449 0.00315172  
     length 3.50322  
     axis 0 0 0   XYZ
    dof ry rz
    limits (-20.0 10.0)
           (0.0 20.0)
  end
  begin
     id 18 
     name lhumerus
     direction 1 -4.48949e-011 2.22502e-028   
     length 4.63208   
     axis 180 -30 -90   XYZ
    dof rx ry rz
    limits (-60.0 90.0)
           (-90.0 90.0)
           (-90.0 90.0)
  end
  begin
     id 19
     name lradius
     direction 1 -4.48967e-011 -4.10197e-027   
     length 3.41924   
     axis 180 -30 -90   XYZ
    dof rx
    limits (-10.0 170.0)
  end
  begin
     id 20
     name lwrist
     direction 1 -4.48987e-011 -1.24264e-027   
     length 1.70962   
     axis 2.50585e-015 90 90   XYZ
    dof ry
    limits (-180.0 0.0)
 end
  begin
     id 21 
     name lhand
     direction 1 -4.48983e-011 -2.48528e-027   
     length 0.62537   
     axis 1.58582e-015 90 90   XYZ
    dof rx rz
    limits (-90.0 90.0)
           (-45.0 45.0)
  end
  begin
     id 22 
     name lfingers
     direction 1 -4.48896e-011 -4.97056e-027   
     length 0.50419   
     axis 3.17164e-015 90 90   XYZ
    dof rx
    limits (0.0 90.0)
  end
  begin
     id 23
     name lthumb
     direction 0.707107 -6.34803e-011 0.707107   
     length 0.723919   
     axis -90 45 2.85299e-015   XYZ
    dof rx rz
    limits (-45.0 45.0)
           (-45.0 45.0)
  end
  begin
     id 24 
     name rclavicle
     direction -0.964499 0.260664 -0.0423695   
     length 3.91997  
     axis 0 0 0   XYZ 
    dof ry rz
    limits (-10.0 20.0)
           (-20.0 0.0)
  end
  begin
     id 25 
     name rhumerus
     direction -1 -4.48957e-011 -1.98656e-027  
     length 4.4064   
     axis 180 30 90   XYZ
    dof rx ry rz
    limits (-90.0 60.0)
           (-90.0 90.0)
           (-90.0 90.0)
  end
  begin
     id 26 
     name rradius
     direction -1 -4.48968e-011 1.96972e-027   
     length 3.44675   
     axis 180 30 90   XYZ
    dof rx
    limits (-10.0 170.0)
  end
  begin
     id 27 
     name rwrist
     direction -1 -4.48974e-011 -1.24264e-027   
     length 1.72338   
     axis 2.50585e-015 -90 -90   XYZ
    dof ry
    limits (-180.0 0.0)
  end
  begin
     id 28
     name rhand
     direction -1 -4.48901e-011 -2.48528e-027   
     length 0.513674   
     axis 1.58582e-015 -90 -90   XYZ
    dof rx rz
    limits (-90.0 90.0)
           (-45.0 45.0)
  end
  begin
     id 29
     name rfingers
     direction -1 -4.48946e-011 -4.97056e-027   
     length 0.414137   
     axis 3.17164e-015 -90 -90   XYZ
    dof rx
    limits (0.0 90.0)
  end
  begin
     id 30
     name rthumb
     direction -0.707107 -6.34859e-011 0.707107   
     length 0.59462   
     axis -90 -45 -2.85299e-015   XYZ
    dof rx rz
    limits (-45.0 45.0)
           (-45.0 45.0)
  end
:hierarchy
  begin
    root lhipjoint rhipjoint lowerback
    lhipjoint lfemur
    lfemur ltibia
    ltibia lfoot
    lfoot ltoes
    rhipjoint rfemur
    rfemur rtibia
    rtibia rfoot
    rfoot rtoes
    lowerback upperback
    upperback thorax
    thorax lowerneck lclavicle rclavicle
    lowerneck upperneck
    upperneck head
    lclavicle lhumerus
    lhumerus lradius
    lradius lwrist
    lwrist lhand lthumb
    lhand lfingers
    rclavicle rhumerus
    rhumerus rradius
    rradius rwrist
    rwrist rhand rthumb
    rhand rfingers
  end

#!OML:ASF E:\inclinewalkrobotboard\Project 1\Capture day 1\Session 1\subject1.ASF
:FULLY-SPECIFIED
:DEGREES
50
root 10.8483 16.9799 38.1527 -162.093 1.7764 176.806
lowerback 5.11267 -0.188857 -3.11222
upperback 4.9307 -0.00142713 2.7539
thorax 2.23618 0.0202252 4.60525
lowerneck -8.80905 -2.26012 -3.13625
upperneck 34.3831 0.576338 2.27896
head 12.929 1.29534 1.78404
rclavicle -1.31198e-014 -6.44062e-014
rhumerus -38.0268 -27.4897 -63.9144
rradius 22.2574
rwrist 25.4752
rhand -15.9035 -41.1181
rfingers 7.12502
rthumb 10.2933 -70.8462
lclavicle -1.31198e-014 -6.44062e-014
lhumerus -21.907 -0.206512 87.2634
lradius 27.4558
lwrist -20.1384
lhand -32.8298 -26.1809
lfingers 7.12502
lthumb -6.04987 3.7127
rfemur -27.2637 9.43866 15.633
rtibia 32.1387
rfoot -28.7439 -9.12453
rtoes -19.2925
lfemur -30.9377 -9.32703 -13.5343
ltibia 38.4918
lfoot -28.6275 13.4636
ltoes -67.2777
51
root 10.8447 16.9521 38.0384 -162.262 1.95555 176.833
lowerback 5.19582 0.0239176 -3.12706
upperback 4.86809 0.272459 2.63539
thorax 2.09593 0.15946 4.47982
lowerneck -9.00319 -2.29093 -2.84993
upperneck 34.5712 0.645011 1.91147
head 13.0517 1.32938 1.60974
rclavicle 7.95139e-016 3.97569e-015
rhumerus -36.4246 -26.5587 -65.1703
rradius 22.7062
rwrist 24.6443
rhand -15.9051 -41.2561
rfingers 7.12502
rthumb 10.2917 -70.9843
lclavicle 7.95139e-016 3.97569e-015
lhumerus -22.7541 0.490662 86.5333
lradius 26.7684
lwrist -20.205
lhand -32.2082 -24.5955
lfingers 7.12502
lthumb -5.44975 5.31439
rfemur -26.7861 9.45707 15.7477
rtibia 32.4836
rfoot -29.3542 -9.03313
rtoes -19.6505
lfemur -31.8786 -9.08594 -13.4917
ltibia 39.8557
lfoot -28.8378 13.5527
ltoes -67.2665
52
root 10.8374 16.9277 37.9153 -162.3 2.03395 176.966
lowerback 5.06597 0.218566 -2.96928
upperback 4.83589 0.531841 2.50767
thorax 2.10863 0.292443 4.24845
lowerneck -9.24837 -2.29575 -2.53621
upperneck 34.6565 0.664128 1.67848
head 13.1413 1.35325 1.47174
rclavicle 3.18055e-015 0
rhumerus -34.6206 -25.5263 -66.7027
rradius 23.2779
rwrist 23.4462
rhand -15.9034 -41.5399
rfingers 7.12502
rthumb 10.2933 -71.268
lclavicle 3.18055e-015 0
lhumerus -23.5689 1.13343 85.6797
lradius 25.566
lwrist -21.3644
lhand -32.4733 -22.6678
lfingers 7.12502
lthumb -5.70568 7.23542
rfemur -26.4133 9.43182 15.979
rtibia 32.8917
rfoot -30.0554 -9.0783
rtoes -20.8626
lfemur -33.0289 -8.83804 -13.2483
ltibia 41.0229
lfoot -28.4252 14.3709
ltoes -67.6625
53
root 10.8265 16.9071 37.7875 -162.415 1.96938 177.113
lowerback 5.07125 0.359682 -2.76612
upperback 4.80088 0.722749 2.41098
thorax 2.05217 0.395183 4.02541
lowerneck -9.40539 -2.25746 -2.43921
upperneck 34.6319 0.707131 1.64203
head 13.1632 1.38038 1.4474
rclavicle -1.39149e-014 -1.98785e-014
rhumerus -32.6865 -24.3116 -68.3458
rradius 23.8836
rwrist 22.0307
rhand -15.7529 -42.1873
rfingers 7.12502
rthumb 10.4386 -71.9082
lclavicle -1.39149e-014 -1.98785e-014
lhumerus -24.6011 1.73653 84.8451
lradius 24.8986
lwrist -21.6815
lhand -31.7119 -21.6252
lfingers 7.12502
lthumb -4.9706 8.29647
rfemur -25.889 9.33548 16.2427
rtibia 33.238
rfoot -30.7238 -9.26995
rtoes -22.2122
lfemur -34.2092 -8.62727 -12.9394
ltibia 42.0811
lfoot -28.3977 14.3343
ltoes -67.7568
54
root 10.8135 16.8833 37.6503 -162.55 1.8294 177.157
lowerback 5.10968 0.455757 -2.71007
upperback 4.79109 0.851519 2.33696
thorax 2.00994 0.462911 3.91148
lowerneck -9.66793 -2.24422 -2.4265
upperneck 34.7108 0.791908 1.48172
head 13.2543 1.40046 1.39938
rclavicle -1.31198e-014 -8.74653e-015
rhumerus -30.6459 -22.8992 -70.0399
rradius 24.5925
rwrist 20.5221
rhand -15.6244 -43.0284
rfingers 7.12502
rthumb 10.5625 -72.743
lclavicle -1.31198e-014 -8.74653e-015
lhumerus -25.6945 2.70264 83.8697
lradius 23.9362
lwrist -22.5574
lhand -31.2657 -22.2404
lfingers 7.12502
lthumb -4.5397 7.69097
rfemur -25.1931 9.16575 16.3826
rtibia 33.3618
rfoot -31.2648 -9.41124
rtoes -22.655
lfemur -35.4213 -8.38355 -12.7364
ltibia 42.9503
lfoot -28.0606 14.3311
ltoes -67.8445
